<?xml version="1.0" encoding="UTF-8"?>
<svg width="434px" height="127px" viewBox="0 0 434 127" version="1.1" xmlns="http://www.w3.org/2000/svg" xmlns:xlink="http://www.w3.org/1999/xlink">
    <title>footer-logo</title>
    <defs>
        <polygon id="path-1" points="0 0 131.939186 0 131.939186 58.5692928 0 58.5692928"></polygon>
        <polygon id="path-3" points="0 0 131.939186 0 131.939186 58.5692928 0 58.5692928"></polygon>
    </defs>
    <g id="lander" stroke="none" stroke-width="1" fill="none" fill-rule="evenodd">
        <g id="Bunks-Host-Lander" transform="translate(-2472.000000, -16636.000000)">
            <g id="footer-logo" transform="translate(2472.000000, 16636.000000)">
                <path d="M196.419246,108.845413 C194.666254,111.976479 192.251767,114.44894 189.176984,116.261002 C186.100402,118.07426 182.677779,118.979693 178.907317,118.979693 C175.137455,118.979693 171.729226,118.07426 168.688627,116.261002 C165.64503,114.44894 163.246136,111.976479 161.494343,108.845413 C159.741351,105.715541 158.865155,102.205567 158.865155,98.314893 C158.865155,97.1949046 158.89754,96.3719463 158.964709,95.8436274 C159.02948,95.7121453 159.063664,95.5465974 159.063664,95.3487766 C159.723959,90.2072294 161.89136,85.9896427 165.562868,82.6930282 C169.233776,79.397609 173.681326,77.7493018 178.907317,77.7493018 C182.677779,77.7493018 186.100402,78.6391965 189.176984,80.4189858 C192.251767,82.1987751 194.666254,84.6550995 196.419246,87.7849708 C198.171638,90.916635 199.048434,94.4266091 199.048434,98.314893 C199.048434,102.205567 198.171638,105.715541 196.419246,108.845413 M193.343863,74.4371485 C189.275938,72.031624 184.727635,70.8279653 179.700752,70.8279653 C175.400734,70.8279653 171.465947,71.7351917 167.893994,73.5472539 C164.32324,75.361109 161.377997,77.8479134 159.063664,81.0118505 L159.063664,52.0421634 C159.063664,50.9221751 158.699032,49.9994099 157.972167,49.2732702 C157.243503,48.5489235 156.31753,48.1861525 155.194247,48.1861525 C154.068566,48.1861525 153.160585,48.5489235 152.465505,49.2732702 C151.771625,49.9994099 151.424385,50.9221751 151.424385,52.0421634 L151.424385,74.1903208 C151.356616,74.3875439 151.324831,74.6839763 151.324831,75.0796178 L151.324831,98.314893 C151.324831,103.457038 152.531475,108.1378 154.946561,112.355387 C157.360449,116.574169 160.667325,119.88692 164.868388,122.292444 C169.067653,124.699164 173.747895,125.90103 178.907317,125.90103 C184.06614,125.90103 188.745183,124.699164 192.946846,122.292444 C197.14671,119.88692 200.453586,116.574169 202.868073,112.355387 C205.281961,108.1378 206.490404,103.457038 206.490404,98.314893 C206.490404,93.1739434 205.314945,88.5111105 202.968227,84.3246014 C200.61911,80.1392875 197.411788,76.8438683 193.343863,74.4371485" id="Fill-1" stroke="#000000" stroke-width="1.8" fill="#000000"></path>
                <path d="M261.95224,71.322577 C260.825359,71.322577 259.918577,71.6686139 259.222898,72.3606878 C258.527818,73.0527617 258.181178,73.9593904 258.181178,75.0793788 L258.181178,104.346096 C258.181178,107.049846 257.420129,109.504975 255.89863,111.712678 C254.376532,113.921577 252.310484,115.65236 249.698088,116.903233 C247.084493,118.156496 244.157242,118.782231 240.917535,118.782231 C235.624375,118.782231 231.342349,117.249867 228.068458,114.184542 C224.794567,111.119814 223.156722,106.654802 223.156722,100.787115 L223.156722,75.0793788 C223.156722,74.0263268 222.793889,73.1364321 222.066424,72.4102924 C221.33716,71.685348 220.411787,71.322577 219.287305,71.322577 C218.228793,71.322577 217.335805,71.685348 216.60894,72.4102924 C215.880875,73.1364321 215.517443,74.0263268 215.517443,75.0793788 L215.517443,100.787115 C215.517443,106.061339 216.574156,110.59269 218.69178,114.382362 C220.808804,118.17323 223.735455,121.056274 227.472333,123.033884 C231.20861,125.010896 235.426466,126 240.123501,126 C243.760825,126 247.13427,125.307926 250.244436,123.923778 C253.352804,122.539033 255.998784,120.628359 258.181178,118.188769 L258.181178,121.550527 C258.181178,122.672308 258.527818,123.594475 259.222898,124.31942 C259.918577,125.04556 260.825359,125.406538 261.95224,125.406538 C263.075522,125.406538 264.001495,125.04556 264.72956,124.31942 C265.456425,123.594475 265.821057,122.672308 265.821057,121.550527 L265.821057,75.0793788 C265.821057,73.9593904 265.456425,73.0527617 264.72956,72.3606878 C264.001495,71.6686139 263.075522,71.322577 261.95224,71.322577" id="Fill-3" stroke="#000000" stroke-width="1.8" fill="#000000"></path>
                <path d="M317.066117,73.6952907 C313.32804,71.7176806 309.111383,70.7291744 304.415548,70.7291744 C300.777025,70.7291744 297.40358,71.4212483 294.295212,72.8059937 C291.185646,74.1901415 288.540865,76.1020106 286.358471,78.5404056 L286.358471,75.1786477 C286.358471,74.0586594 286.011231,73.1364919 285.316151,72.4103522 C284.622271,71.6854078 283.711291,71.3226367 282.588008,71.3226367 C281.461728,71.3226367 280.536954,71.6854078 279.809489,72.4103522 C279.080825,73.1364919 278.719192,74.0586594 278.719192,75.1786477 L278.719192,121.649198 C278.719192,122.770979 279.080825,123.676413 279.809489,124.368487 C280.536954,125.06056 281.461728,125.406597 282.588008,125.406597 C283.711291,125.406597 284.622271,125.06056 285.316151,124.368487 C286.011231,123.676413 286.358471,122.770979 286.358471,121.649198 L286.358471,92.382481 C286.358471,89.6805241 287.117721,87.2259927 288.640419,85.016496 C290.160718,82.8087922 292.227365,81.0786075 294.841561,79.8253442 C297.452757,78.5744714 300.380008,77.9469433 303.622113,77.9469433 C308.912875,77.9469433 313.1961,79.4793072 316.471191,82.5446328 C319.745682,85.6099583 321.381728,90.0761657 321.381728,95.9420597 L321.381728,121.649198 C321.381728,122.705238 321.74576,123.594535 322.473824,124.31948 C323.200089,125.045619 324.126063,125.406597 325.251744,125.406597 C326.309056,125.406597 327.202045,125.045619 327.931309,124.31948 C328.658174,123.594535 329.021606,122.705238 329.021606,121.649198 L329.021606,95.9420597 C329.021606,90.6690304 327.962494,86.1382772 325.847269,82.346812 C323.729645,78.5571397 320.802395,75.6729008 317.066117,73.6952907" id="Fill-5" stroke="#000000" stroke-width="1.8" fill="#000000"></path>
                <path d="M344.696401,48.1867501 C343.574318,48.1867501 342.661539,48.5321894 341.967659,49.2236656 C341.274379,49.9145442 340.927738,50.8241612 340.927738,51.9429542 L340.927738,121.646389 C340.927738,122.774147 341.274379,123.674799 341.967659,124.365678 C342.661539,125.057154 343.574318,125.402593 344.696401,125.402593 C345.819084,125.402593 346.731863,125.057154 347.425743,124.365678 C348.119024,123.674799 348.466264,122.774147 348.466264,121.646389 L348.466264,51.9429542 C348.466264,50.8241612 348.119024,49.9145442 347.425743,49.2236656 C346.731863,48.5321894 345.819084,48.1867501 344.696401,48.1867501" id="Fill-7" stroke="#000000" stroke-width="1.8" fill="#000000"></path>
                <path d="M361.261366,94.6527583 L381.111617,76.7628276 C381.969821,76.0354926 382.398024,75.2167178 382.398024,74.2891714 C382.398024,73.5618364 382.033392,72.7705533 381.312524,71.9153221 C380.646231,71.124039 379.82461,70.7331786 378.829668,70.7331786 C377.963068,70.7331786 377.169034,71.0606886 376.448166,71.7151108 L353.879369,92.0506083 C352.285903,93.4861536 352.123378,95.9221581 353.511138,97.5549265 L376.347413,124.4209 C377.077876,125.338884 377.963068,125.802657 379.02158,125.802657 C379.82461,125.802657 380.609648,125.502639 381.403682,124.911567 C382.334453,124.120284 382.799838,123.229194 382.799838,122.246665 C382.799838,121.383066 382.498777,120.627642 381.905651,119.964255 L361.261366,94.6527583 Z" id="Fill-9" stroke="#000000" stroke-width="1.8" fill="#000000"></path>
                <path d="M428.435504,100.341928 C425.392506,97.6722444 420.333238,95.7442389 413.255301,94.5579119 C408.02931,93.702083 404.390787,92.564763 402.341531,91.1465494 C400.291076,89.7301287 399.266149,87.8343961 399.266149,85.4611445 C399.266149,83.2211679 400.356446,81.3583058 402.540639,79.8749488 C404.722434,78.3921894 407.633492,77.6505109 411.271415,77.6505109 C416.892624,77.6505109 421.324581,79.496639 424.566687,83.187102 C425.49266,84.1762059 426.650127,84.670459 428.039087,84.670459 C428.832521,84.670459 429.460431,84.5067041 429.923418,84.1762059 C430.98133,83.5181978 431.512086,82.6283032 431.512086,81.5065219 C431.512086,80.8485139 431.246408,80.0895036 430.718052,79.2324795 C428.732967,76.5968613 426.119971,74.5361784 422.879065,73.0528215 C419.638759,71.5694645 415.835312,70.8283836 411.468724,70.8283836 C405.846916,70.8283836 401.166073,72.147388 397.429795,74.7830062 C393.691718,77.4204173 391.823579,81.1449462 391.823579,85.9553976 C391.823579,89.6482513 393.42724,92.7948566 396.636961,95.3982019 C399.843683,98.0027425 404.688849,99.8321365 411.171861,100.885786 C416.198144,101.677069 419.868453,102.863396 422.185785,104.445365 C424.499518,106.027333 425.658184,108.004943 425.658184,110.378195 C425.591615,112.94867 424.400564,115.024891 422.085631,116.60686 C419.770098,118.188829 416.297099,118.980112 411.667833,118.980112 C408.493496,118.980112 405.59923,118.485859 402.986234,117.496755 C400.373238,116.508248 398.273006,115.09123 396.686738,113.245102 C395.892704,112.322935 394.932546,111.860954 393.808664,111.860954 C392.948661,111.860954 392.121642,112.157387 391.328208,112.750849 C390.269695,113.608471 389.740739,114.596977 389.740739,115.716965 C389.740739,116.443105 390.071787,117.200322 390.733282,117.991605 C393.047615,120.496937 396.091212,122.440481 399.861075,123.824629 C403.631537,125.209374 407.565723,125.900851 411.667833,125.900851 C415.768742,125.900851 419.43965,125.242842 422.681156,123.92324 C425.922062,122.606029 428.451097,120.759901 430.271258,118.386649 C432.08962,116.013995 433,113.311441 433,110.278986 C433,106.323766 431.477902,103.011612 428.435504,100.341928" id="Fill-11" stroke="#000000" stroke-width="1.8" fill="#000000"></path>
                <g id="Group-21-Copy">
                    <path d="M114.02226,58.3649132 L113.438889,57.9003087 L72.8943412,25.5700594 L71.9083087,24.783558 C68.4428143,22.0195368 63.4963718,22.0195368 60.0308774,24.783558 L59.0448449,25.5700594 L18.4997541,57.9003087 L17.9169259,58.3649132 C15.6887205,60.1401745 14.3933658,62.816747 14.3933658,65.6456841 L14.3933658,120.053231 C14.3933658,123.064576 16.8630596,125.505627 19.9090697,125.505627 C22.9550797,125.505627 25.4247736,123.064576 25.4247736,120.053231 L25.4247736,68.3426434 C25.4247736,67.1060229 25.990779,65.9353913 26.9643301,65.1590833 L63.3726429,36.1314959 C64.8883219,34.9233096 67.0508642,34.9233096 68.5665432,36.1314959 L104.974856,65.1590833 C105.948407,65.9353913 106.514412,67.1060229 106.514412,68.3426434 L106.514412,110.510598 C106.514412,112.769241 104.662278,114.600298 102.377635,114.600298 L49.1166864,114.600298 C46.8320432,114.600298 44.9799085,112.769241 44.9799085,110.510598 L44.9799085,77.5875217 C44.9799085,76.3509012 45.5459139,75.1808061 46.5200076,74.4044981 L64.1785087,60.3247287 C65.2236923,59.4915523 66.7154938,59.4915523 67.7601347,60.3247287 L85.4191785,74.4044981 C86.3927295,75.1808061 86.9592776,76.3509012 86.9592776,77.5875217 L86.9592776,100.720104 C86.9592776,103.73145 89.4284288,106.173037 92.4744389,106.173037 C95.5209916,106.173037 97.9901428,103.73145 97.9901428,100.720104 L97.9901428,73.6255077 C97.9901428,71.5964843 97.0616334,69.676906 95.4640112,68.4032673 L71.9072234,49.6216575 C68.4422716,46.8587093 63.4969145,46.8587093 60.0319627,49.6216575 L37.4698901,67.6097915 C35.2433127,69.3850528 33.9490433,72.0610888 33.9490433,74.8889529 L33.9490433,116.15506 C33.9490433,121.319358 38.1835019,125.505627 43.4072491,125.505627 L108.087072,125.505627 C113.310819,125.505627 117.54582,121.319358 117.54582,116.15506 L117.54582,65.6456841 C117.54582,62.816747 116.250466,60.1401745 114.02226,58.3649132" id="Fill-14" fill="#447471"></path>
                    <g id="Group-18">
                        <mask id="mask-2" fill="white">
                            <use xlink:href="#path-1"></use>
                        </mask>
                        <g id="Clip-17"></g>
                    </g>
                    <path d="M57.3038134,80.682189 C54.8030331,80.682189 52.7756744,82.7025239 52.7756744,85.1946404 L52.7756744,101.868509 C52.7756744,104.360625 54.8030331,106.38096 57.3038134,106.38096 L74.036206,106.38096 C76.5369864,106.38096 78.5637881,104.360625 78.5637881,101.868509 L78.5637881,85.1946404 C78.5637881,82.7025239 76.5369864,80.682189 74.036206,80.682189 L57.3038134,80.682189 Z" id="Fill-19" fill="#FF5A60"></path>
                </g>
                <path d="M196.419246,108.845413 C194.666254,111.976479 192.251767,114.44894 189.176984,116.261002 C186.100402,118.07426 182.677779,118.979693 178.907317,118.979693 C175.137455,118.979693 171.729226,118.07426 168.688627,116.261002 C165.64503,114.44894 163.246136,111.976479 161.494343,108.845413 C159.741351,105.715541 158.865155,102.205567 158.865155,98.314893 C158.865155,97.1949046 158.89754,96.3719463 158.964709,95.8436274 C159.02948,95.7121453 159.063664,95.5465974 159.063664,95.3487766 C159.723959,90.2072294 161.89136,85.9896427 165.562868,82.6930282 C169.233776,79.397609 173.681326,77.7493018 178.907317,77.7493018 C182.677779,77.7493018 186.100402,78.6391965 189.176984,80.4189858 C192.251767,82.1987751 194.666254,84.6550995 196.419246,87.7849708 C198.171638,90.916635 199.048434,94.4266091 199.048434,98.314893 C199.048434,102.205567 198.171638,105.715541 196.419246,108.845413 M193.343863,74.4371485 C189.275938,72.031624 184.727635,70.8279653 179.700752,70.8279653 C175.400734,70.8279653 171.465947,71.7351917 167.893994,73.5472539 C164.32324,75.361109 161.377997,77.8479134 159.063664,81.0118505 L159.063664,52.0421634 C159.063664,50.9221751 158.699032,49.9994099 157.972167,49.2732702 C157.243503,48.5489235 156.31753,48.1861525 155.194247,48.1861525 C154.068566,48.1861525 153.160585,48.5489235 152.465505,49.2732702 C151.771625,49.9994099 151.424385,50.9221751 151.424385,52.0421634 L151.424385,74.1903208 C151.356616,74.3875439 151.324831,74.6839763 151.324831,75.0796178 L151.324831,98.314893 C151.324831,103.457038 152.531475,108.1378 154.946561,112.355387 C157.360449,116.574169 160.667325,119.88692 164.868388,122.292444 C169.067653,124.699164 173.747895,125.90103 178.907317,125.90103 C184.06614,125.90103 188.745183,124.699164 192.946846,122.292444 C197.14671,119.88692 200.453586,116.574169 202.868073,112.355387 C205.281961,108.1378 206.490404,103.457038 206.490404,98.314893 C206.490404,93.1739434 205.314945,88.5111105 202.968227,84.3246014 C200.61911,80.1392875 197.411788,76.8438683 193.343863,74.4371485" id="Fill-1" stroke="#000000" stroke-width="1.8" fill="#000000"></path>
                <path d="M261.95224,71.322577 C260.825359,71.322577 259.918577,71.6686139 259.222898,72.3606878 C258.527818,73.0527617 258.181178,73.9593904 258.181178,75.0793788 L258.181178,104.346096 C258.181178,107.049846 257.420129,109.504975 255.89863,111.712678 C254.376532,113.921577 252.310484,115.65236 249.698088,116.903233 C247.084493,118.156496 244.157242,118.782231 240.917535,118.782231 C235.624375,118.782231 231.342349,117.249867 228.068458,114.184542 C224.794567,111.119814 223.156722,106.654802 223.156722,100.787115 L223.156722,75.0793788 C223.156722,74.0263268 222.793889,73.1364321 222.066424,72.4102924 C221.33716,71.685348 220.411787,71.322577 219.287305,71.322577 C218.228793,71.322577 217.335805,71.685348 216.60894,72.4102924 C215.880875,73.1364321 215.517443,74.0263268 215.517443,75.0793788 L215.517443,100.787115 C215.517443,106.061339 216.574156,110.59269 218.69178,114.382362 C220.808804,118.17323 223.735455,121.056274 227.472333,123.033884 C231.20861,125.010896 235.426466,126 240.123501,126 C243.760825,126 247.13427,125.307926 250.244436,123.923778 C253.352804,122.539033 255.998784,120.628359 258.181178,118.188769 L258.181178,121.550527 C258.181178,122.672308 258.527818,123.594475 259.222898,124.31942 C259.918577,125.04556 260.825359,125.406538 261.95224,125.406538 C263.075522,125.406538 264.001495,125.04556 264.72956,124.31942 C265.456425,123.594475 265.821057,122.672308 265.821057,121.550527 L265.821057,75.0793788 C265.821057,73.9593904 265.456425,73.0527617 264.72956,72.3606878 C264.001495,71.6686139 263.075522,71.322577 261.95224,71.322577" id="Fill-3" stroke="#000000" stroke-width="1.8" fill="#000000"></path>
                <path d="M317.066117,73.6952907 C313.32804,71.7176806 309.111383,70.7291744 304.415548,70.7291744 C300.777025,70.7291744 297.40358,71.4212483 294.295212,72.8059937 C291.185646,74.1901415 288.540865,76.1020106 286.358471,78.5404056 L286.358471,75.1786477 C286.358471,74.0586594 286.011231,73.1364919 285.316151,72.4103522 C284.622271,71.6854078 283.711291,71.3226367 282.588008,71.3226367 C281.461728,71.3226367 280.536954,71.6854078 279.809489,72.4103522 C279.080825,73.1364919 278.719192,74.0586594 278.719192,75.1786477 L278.719192,121.649198 C278.719192,122.770979 279.080825,123.676413 279.809489,124.368487 C280.536954,125.06056 281.461728,125.406597 282.588008,125.406597 C283.711291,125.406597 284.622271,125.06056 285.316151,124.368487 C286.011231,123.676413 286.358471,122.770979 286.358471,121.649198 L286.358471,92.382481 C286.358471,89.6805241 287.117721,87.2259927 288.640419,85.016496 C290.160718,82.8087922 292.227365,81.0786075 294.841561,79.8253442 C297.452757,78.5744714 300.380008,77.9469433 303.622113,77.9469433 C308.912875,77.9469433 313.1961,79.4793072 316.471191,82.5446328 C319.745682,85.6099583 321.381728,90.0761657 321.381728,95.9420597 L321.381728,121.649198 C321.381728,122.705238 321.74576,123.594535 322.473824,124.31948 C323.200089,125.045619 324.126063,125.406597 325.251744,125.406597 C326.309056,125.406597 327.202045,125.045619 327.931309,124.31948 C328.658174,123.594535 329.021606,122.705238 329.021606,121.649198 L329.021606,95.9420597 C329.021606,90.6690304 327.962494,86.1382772 325.847269,82.346812 C323.729645,78.5571397 320.802395,75.6729008 317.066117,73.6952907" id="Fill-5" stroke="#000000" stroke-width="1.8" fill="#000000"></path>
                <path d="M344.696401,48.1867501 C343.574318,48.1867501 342.661539,48.5321894 341.967659,49.2236656 C341.274379,49.9145442 340.927738,50.8241612 340.927738,51.9429542 L340.927738,121.646389 C340.927738,122.774147 341.274379,123.674799 341.967659,124.365678 C342.661539,125.057154 343.574318,125.402593 344.696401,125.402593 C345.819084,125.402593 346.731863,125.057154 347.425743,124.365678 C348.119024,123.674799 348.466264,122.774147 348.466264,121.646389 L348.466264,51.9429542 C348.466264,50.8241612 348.119024,49.9145442 347.425743,49.2236656 C346.731863,48.5321894 345.819084,48.1867501 344.696401,48.1867501" id="Fill-7" stroke="#000000" stroke-width="1.8" fill="#000000"></path>
                <path d="M361.261366,94.6527583 L381.111617,76.7628276 C381.969821,76.0354926 382.398024,75.2167178 382.398024,74.2891714 C382.398024,73.5618364 382.033392,72.7705533 381.312524,71.9153221 C380.646231,71.124039 379.82461,70.7331786 378.829668,70.7331786 C377.963068,70.7331786 377.169034,71.0606886 376.448166,71.7151108 L353.879369,92.0506083 C352.285903,93.4861536 352.123378,95.9221581 353.511138,97.5549265 L376.347413,124.4209 C377.077876,125.338884 377.963068,125.802657 379.02158,125.802657 C379.82461,125.802657 380.609648,125.502639 381.403682,124.911567 C382.334453,124.120284 382.799838,123.229194 382.799838,122.246665 C382.799838,121.383066 382.498777,120.627642 381.905651,119.964255 L361.261366,94.6527583 Z" id="Fill-9" stroke="#000000" stroke-width="1.8" fill="#000000"></path>
                <path d="M428.435504,100.341928 C425.392506,97.6722444 420.333238,95.7442389 413.255301,94.5579119 C408.02931,93.702083 404.390787,92.564763 402.341531,91.1465494 C400.291076,89.7301287 399.266149,87.8343961 399.266149,85.4611445 C399.266149,83.2211679 400.356446,81.3583058 402.540639,79.8749488 C404.722434,78.3921894 407.633492,77.6505109 411.271415,77.6505109 C416.892624,77.6505109 421.324581,79.496639 424.566687,83.187102 C425.49266,84.1762059 426.650127,84.670459 428.039087,84.670459 C428.832521,84.670459 429.460431,84.5067041 429.923418,84.1762059 C430.98133,83.5181978 431.512086,82.6283032 431.512086,81.5065219 C431.512086,80.8485139 431.246408,80.0895036 430.718052,79.2324795 C428.732967,76.5968613 426.119971,74.5361784 422.879065,73.0528215 C419.638759,71.5694645 415.835312,70.8283836 411.468724,70.8283836 C405.846916,70.8283836 401.166073,72.147388 397.429795,74.7830062 C393.691718,77.4204173 391.823579,81.1449462 391.823579,85.9553976 C391.823579,89.6482513 393.42724,92.7948566 396.636961,95.3982019 C399.843683,98.0027425 404.688849,99.8321365 411.171861,100.885786 C416.198144,101.677069 419.868453,102.863396 422.185785,104.445365 C424.499518,106.027333 425.658184,108.004943 425.658184,110.378195 C425.591615,112.94867 424.400564,115.024891 422.085631,116.60686 C419.770098,118.188829 416.297099,118.980112 411.667833,118.980112 C408.493496,118.980112 405.59923,118.485859 402.986234,117.496755 C400.373238,116.508248 398.273006,115.09123 396.686738,113.245102 C395.892704,112.322935 394.932546,111.860954 393.808664,111.860954 C392.948661,111.860954 392.121642,112.157387 391.328208,112.750849 C390.269695,113.608471 389.740739,114.596977 389.740739,115.716965 C389.740739,116.443105 390.071787,117.200322 390.733282,117.991605 C393.047615,120.496937 396.091212,122.440481 399.861075,123.824629 C403.631537,125.209374 407.565723,125.900851 411.667833,125.900851 C415.768742,125.900851 419.43965,125.242842 422.681156,123.92324 C425.922062,122.606029 428.451097,120.759901 430.271258,118.386649 C432.08962,116.013995 433,113.311441 433,110.278986 C433,106.323766 431.477902,103.011612 428.435504,100.341928" id="Fill-11" stroke="#000000" stroke-width="1.8" fill="#000000"></path>
                <g id="Group-21-Copy">
                    <path d="M114.02226,58.3649132 L113.438889,57.9003087 L72.8943412,25.5700594 L71.9083087,24.783558 C68.4428143,22.0195368 63.4963718,22.0195368 60.0308774,24.783558 L59.0448449,25.5700594 L18.4997541,57.9003087 L17.9169259,58.3649132 C15.6887205,60.1401745 14.3933658,62.816747 14.3933658,65.6456841 L14.3933658,120.053231 C14.3933658,123.064576 16.8630596,125.505627 19.9090697,125.505627 C22.9550797,125.505627 25.4247736,123.064576 25.4247736,120.053231 L25.4247736,68.3426434 C25.4247736,67.1060229 25.990779,65.9353913 26.9643301,65.1590833 L63.3726429,36.1314959 C64.8883219,34.9233096 67.0508642,34.9233096 68.5665432,36.1314959 L104.974856,65.1590833 C105.948407,65.9353913 106.514412,67.1060229 106.514412,68.3426434 L106.514412,110.510598 C106.514412,112.769241 104.662278,114.600298 102.377635,114.600298 L49.1166864,114.600298 C46.8320432,114.600298 44.9799085,112.769241 44.9799085,110.510598 L44.9799085,77.5875217 C44.9799085,76.3509012 45.5459139,75.1808061 46.5200076,74.4044981 L64.1785087,60.3247287 C65.2236923,59.4915523 66.7154938,59.4915523 67.7601347,60.3247287 L85.4191785,74.4044981 C86.3927295,75.1808061 86.9592776,76.3509012 86.9592776,77.5875217 L86.9592776,100.720104 C86.9592776,103.73145 89.4284288,106.173037 92.4744389,106.173037 C95.5209916,106.173037 97.9901428,103.73145 97.9901428,100.720104 L97.9901428,73.6255077 C97.9901428,71.5964843 97.0616334,69.676906 95.4640112,68.4032673 L71.9072234,49.6216575 C68.4422716,46.8587093 63.4969145,46.8587093 60.0319627,49.6216575 L37.4698901,67.6097915 C35.2433127,69.3850528 33.9490433,72.0610888 33.9490433,74.8889529 L33.9490433,116.15506 C33.9490433,121.319358 38.1835019,125.505627 43.4072491,125.505627 L108.087072,125.505627 C113.310819,125.505627 117.54582,121.319358 117.54582,116.15506 L117.54582,65.6456841 C117.54582,62.816747 116.250466,60.1401745 114.02226,58.3649132" id="Fill-14" fill="#447471"></path>
                    <g id="Group-18">
                        <mask id="mask-4" fill="white">
                            <use xlink:href="#path-3"></use>
                        </mask>
                        <g id="Clip-17"></g>
                    </g>
                    <path d="M57.3038134,80.682189 C54.8030331,80.682189 52.7756744,82.7025239 52.7756744,85.1946404 L52.7756744,101.868509 C52.7756744,104.360625 54.8030331,106.38096 57.3038134,106.38096 L74.036206,106.38096 C76.5369864,106.38096 78.5637881,104.360625 78.5637881,101.868509 L78.5637881,85.1946404 C78.5637881,82.7025239 76.5369864,80.682189 74.036206,80.682189 L57.3038134,80.682189 Z" id="Fill-19" fill="#FF5A60"></path>
                </g>
            </g>
        </g>
    </g>
</svg>