<?xml version="1.0" encoding="UTF-8"?>
<svg width="110px" height="110px" viewBox="0 0 110 110" version="1.1" xmlns="http://www.w3.org/2000/svg" xmlns:xlink="http://www.w3.org/1999/xlink">
    <title>at-symbol</title>
    <g id="lander" stroke="none" stroke-width="1" fill="none" fill-rule="evenodd">
        <g id="Bunks-Host-Lander" transform="translate(-1520.000000, -14605.000000)">
            <g id="at-symbol" transform="translate(1521.000000, 14606.000000)">
                <path d="M47.5603131,46.2857143 C45.6353309,46.2857143 44.0747664,47.8414324 44.0747664,49.7604363 L44.0747664,62.5998121 C44.0747664,64.518816 45.6353309,66.0745342 47.5603131,66.0745342 L60.4401156,66.0745342 C62.3650978,66.0745342 63.9252336,64.518816 63.9252336,62.5998121 L63.9252336,49.7604363 C63.9252336,47.8414324 62.3650978,46.2857143 60.4401156,46.2857143 L47.5603131,46.2857143 Z" id="Fill-19-Copy" fill="#FF5A60"></path>
                <path d="M15.6114223,91.9159491 C5.34443146,81.5453857 -0.197890314,67.807561 0.00540026872,53.2320887 C0.202159427,39.1604248 5.8551072,25.887779 15.9220732,15.8595939 C25.9894474,5.83181539 39.313553,0.201279363 53.4406157,0.00528612468 C53.6965659,0.0016264999 53.9557818,0 54.2109155,0 C80.2427237,0 102.564683,18.3107293 107.457128,43.8057086 C108.607883,49.8030203 107.921267,56.0256023 105.472391,61.8013035 C100.496671,73.5365002 89.0172841,81.1196494 76.228347,81.1196494 L42.7319373,81.1196494 C34.9783201,81.1196494 28.6701889,74.8360737 28.6701889,67.1130455 L28.6701889,45.9669203 C28.6701889,43.2177288 29.9111595,40.6616843 32.0742856,38.9546726 L48.5796031,25.9280349 C51.905731,23.3028641 56.5279383,23.3317344 59.8218173,25.9971612 L75.8691187,38.9876092 C77.9771359,40.6938076 79.186674,43.2242348 79.186674,45.9307307 L79.186674,61.1223688 C79.186674,66.0551364 70.8154291,62.1363624 70.8154291,61.8013035 L70.8154291,45.9307307 C70.8154291,45.7469362 70.7333781,45.5749338 70.5900949,45.4590457 L54.5419771,32.468191 C54.3182758,32.2876495 54.0043592,32.2852098 53.7782087,32.4637181 L37.2728911,45.4903558 C37.1255259,45.6066506 37.0414338,45.7802794 37.0414338,45.9669203 L37.0414338,67.1130455 C37.0414338,70.2383651 39.5939961,72.780991 42.7319373,72.780991 L76.228347,72.780991 C85.6450281,72.780991 94.0970994,67.1976235 97.7608202,58.5568428 C99.5643098,54.3039522 100.073761,49.7444663 99.234881,45.3716213 C95.0584434,23.6066129 75.8458505,8.05524076 53.5573649,8.34313124 C28.9861465,8.68347634 8.71791213,28.872813 8.37623699,53.3483835 C8.20397068,65.6744063 12.8902676,77.2916819 21.5717552,86.0609561 C30.2544675,94.8314502 41.846521,99.6613416 54.2113238,99.6613416 C62.1833354,99.6613416 75.8568204,99.1733282 82.7352267,95.2599694 C84.7415986,94.1185731 87.2986512,94.812682 88.4453244,96.8124636 C89.5919976,98.8118386 88.8939516,101.358531 86.8867633,102.50074 C78.7461593,107.132199 63.6369855,108 54.2113238,108 C39.5882811,108 25.880046,102.288139 15.6114223,91.9159491 Z" id="Fill-1" stroke="#FFFFFF" stroke-width="1.05" fill="#FFFFFF"></path>
            </g>
        </g>
    </g>
</svg>